<?xml version="1.0" encoding="UTF-8"?>
<svg id="_머리장식" data-name="머리장식" xmlns="http://www.w3.org/2000/svg" viewBox="0 0 512 512">
  <g>
    <path d="M306.89,255.36c.41.47.99.77,1.33,1.24.36.5.52,1.11.8,1.62.3.54.37,1.14.58,1.69.22.58.34,1.11.45,1.69s.85,1.12.85,1.72-.1,1.25-.21,1.85-.36,1.18-.59,1.75-.58,1.06-.91,1.59c-.31.49-.72.95-1.12,1.42-.38.44-1.08.57-1.54.99-.43.39-.69.98-1.19,1.35-.51.37-1.13.55-1.66.88s-.9.93-1.46,1.22-1.06.72-1.64.96-1.13.61-1.73.8-1.23.35-1.84.5-1.28.05-1.91.15-1.28-.23-1.91-.18-1.22.13-1.86.14c-.57,0-1.14-.09-1.73-.1s-1.17.54-1.75.52-1.16.03-1.75,0-1.12-.56-1.7-.61-1.14-.16-1.72-.23-1.2.26-1.78.18-1.14-.26-1.71-.36-1.12-.35-1.68-.47-1.1-.42-1.66-.55-1.29.32-1.84.17-1.12-.38-1.66-.56c-.59-.19-.96-.96-1.51-1.15-.58-.2-1.2-.23-1.75-.43-.58-.2-1.04-.68-1.59-.88-.58-.21-1.32.08-1.86-.13-.57-.22-1.01-.75-1.55-.96s-1.34.08-1.88-.13-1.01-.72-1.56-.94-1.22-.2-1.77-.42-.92-.9-1.47-1.13-1.27-.04-1.83-.26-.86-1.04-1.42-1.26-1.2-.19-1.76-.4-1.08-.49-1.65-.7-1.26.04-1.84-.16-1.06-.55-1.64-.74-1.03-.67-1.61-.85c-.55-.17-1.1-.42-1.69-.59s-1.31.3-1.9.14c-.56-.15-1.05-.64-1.65-.8-.52-.14-1.13-.1-1.76-.23-.55-.11-1.07-.53-1.68-.65-.56-.1-1.09-.52-1.7-.62-.57-.1-1.21.16-1.81.06s-1.11-.49-1.7-.58-1.25.32-1.84.23-1.17-.17-1.76-.27-1.18-.15-1.76-.26-1.15-.35-1.73-.46-1.1-.59-1.67-.71-1.24.07-1.81-.06-1.21-.12-1.77-.27c-.6-.16-1.21-.2-1.76-.37-.6-.19-1.07-.67-1.59-.88-.6-.24-.92-.87-1.39-1.13-.52-.29-1-.59-1.49-.94s-1.01-.61-1.46-1.01-1.01-.67-1.4-1.13-.74-.94-1.07-1.44-.48-1.08-.72-1.64-.92-.98-1.04-1.58c-.12-.57-.08-1.21-.08-1.79s.41-1.14.51-1.71-.08-1.22.12-1.77.44-1.11.73-1.62,1.02-.69,1.39-1.15.54-1.04.98-1.44,1.07-.46,1.56-.79c.49-.33.68-1.16,1.21-1.45s1.03-.66,1.59-.9,1.21-.22,1.78-.41,1.18-.22,1.76-.37,1.23.11,1.82,0,1.05-.99,1.64-1.07,1.24.33,1.84.29,1.19.12,1.79.1,1.16-.04,1.76-.04,1.16.04,1.76.04,1.18-.5,1.77-.48,1.18,0,1.77.02,1.15.54,1.74.57,1.19-.12,1.77-.07,1.23-.39,1.81-.33,1.12.73,1.69.8,1.39-.06,1.95.03c-.51.29-1.28.47-1.75.78s-1.04.61-1.46.98c-.45.39-.91.82-1.26,1.25-.38.46-.54,1.1-.78,1.6-.25.53-.32,1.12-.39,1.69-.07.63-.22,1.39.11,1.92.29.48.96.82,1.48,1.23.46.35,1.05.59,1.61.89.53.28,1.03.68,1.6.91s1.26.13,1.84.32c.61.2,1.06.88,1.61,1.03.67.18,1.31.27,1.81.38.56.12,1.18-.08,1.74.05s1.1.29,1.65.44c.55.15,1.04.66,1.67.84.56.16,1.32-.3,1.95-.13.57.16.95,1.05,1.57,1.22.57.16,1.37-.44,1.98-.27.57.16,1.12.5,1.73.66.58.16,1.04.8,1.65.96s1.3-.18,1.91-.02,1.06.77,1.67.93,1.26.02,1.87.17c.64.16,1.34-.07,1.98.04s1.19.84,1.84.91,1.33-.28,1.99-.24,1.3,0,1.95.02,1.3.03,1.95.04c.71.01,1.42.32,2.01.13.66-.21.98-1,1.5-1.37.57-.4,1.34-.51,1.74-.99.48-.57.84-1.18,1.09-1.68.27-.53.13-1.21.33-1.76s.43-1.06.54-1.64.53-1.12.53-1.71.08-1.23-.06-1.81c-.18-.75-.56-1.54-.97-2.23,0,0-.24.32-.23.32.58.18,1.21.16,1.78.35s1.14.38,1.71.58,1.21.21,1.77.43.89,1.03,1.44,1.26,1.28.06,1.83.3,1.01.69,1.55.95.99.7,1.53.97,1.18.32,1.71.6,1.02.64,1.53.94,1,.67,1.5.98,1.19.37,1.69.7,1.2.41,1.68.75.52,1.31.99,1.68,1.25.38,1.69.77.66,1.06,1.08,1.47.87.82,1.26,1.27Z" fill="#fff"/>
    <path d="M283.18,243.33c.14.58.33,1.18.33,1.76s-.04,1.21-.15,1.79-.25,1.18-.45,1.74-.73.98-1,1.5c-.25.49-.75.94-1.24,1.52-.4.48-.65,1.17-1.22,1.57-.52.37-1.17.55-1.83.76-.6.19-1.22.38-1.93.37-.66,0-1.3-.3-1.95-.32s-1.33.54-1.98.5-1.26-.62-1.91-.69-1.26-.3-1.9-.41-1.42.43-2.06.27c-.61-.15-1.2-.32-1.79-.47s-1.09-.73-1.68-.89-1.13-.6-1.71-.75c-.61-.16-1.29,0-1.87-.16-.61-.17-1.18-.43-1.75-.59-.61-.17-1.27-.11-1.84-.27-.62-.17-1.27-.12-1.84-.28-.62-.17-1.16-.55-1.72-.7-.63-.18-1.19-.45-1.74-.6-.55-.15-1.12-.23-1.67-.36s-1.19.12-1.74,0c-.5-.11-1.07-.48-1.74-.65-.55-.15-.97-.91-1.58-1.11-.57-.19-1.33.11-1.9-.12s-1.21-.38-1.74-.66c-.57-.3-.98-.84-1.43-1.2-.52-.41-.61-1.06-.9-1.54-.33-.54-1.03-.93-.95-1.56.06-.57.18-1.21.44-1.74s.81-.86,1.19-1.32c.35-.43.75-.85,1.2-1.24.42-.37.85-.77,1.34-1.1s1-.75,1.51-1.04c.88-.02.89.26,1.76.38s.88.05,1.76.17.82.48,1.69.61.87.13,1.74.25.88.09,1.75.22.88.06,1.76.19.89,0,1.76.11.89.02,1.76.14.91-.16,1.79-.04.81.55,1.69.67.87.15,1.75.27.88.11,1.75.24.91-.11,1.78.01.88.12,1.75.24.87.12,1.75.24.8.65,1.68.77.87.12,1.75.24.89.04,1.76.16.95-.42,1.83-.3.8.69,1.67.81.97-.56,1.85-.44.81.58,1.69.7,1.09-.49,1.9-.14c.41.69.63,1.73.82,2.48Z" fill="#ffec9c"/>
    <path d="M282.17,240.88c-.86.19-.85.41-1.73.29s-.81-.56-1.68-.69-.88-.03-1.76-.16-.88-.04-1.76-.17-.85-.28-1.73-.4-.95.39-1.82.27-.77-.83-1.65-.95-.91.13-1.78,0-.88-.11-1.75-.23-.86-.26-1.73-.38-.95.39-1.82.26-.87-.18-1.74-.3-.81-.57-1.69-.7-.88-.06-1.76-.18-.92.23-1.79.11-.91.11-1.78-.01-.8-.66-1.67-.78-.95.38-1.82.26-.86-.22-1.74-.34-.83-.46-1.7-.58-.84-.38-1.72-.51-.98.59-1.86.47-.97-.12-1.76-.54c.63-.35,1.49-.46,2.15-.76s1.08-1.2,1.75-1.45c.6-.22,1.3-.12,1.89-.29s1.21-.31,1.82-.44,1.26,0,1.87-.09,1.22-.26,1.84-.3,1.23-.37,1.86-.38,1.24.4,1.87.42,1.24-.03,1.86.01,1.28-.4,1.91-.35,1.19.62,1.82.69c.54.06,1.15,0,1.78.09.56.09,1.23-.22,1.83-.1.57.11,1.08.61,1.67.74s1.05.69,1.63.83,1.19.16,1.75.32,1.36-.3,1.91-.13c.59.19,1.01.85,1.53,1.05.6.23,1.02.72,1.51.96.59.29,1.12.6,1.67.95s1.43.26,1.92.67.82,1.07,1.24,1.54.82.71,1.15,1.26Z" fill="#ffec9c"/>
  </g>
  <g>
    <path d="M242.02,235.35c-.57-.09-1.21.3-1.81.23s-1.09-.77-1.69-.82-1.21.42-1.81.38-1.14-.56-1.73-.6-1.21.65-1.8.62-1.16-.46-1.75-.47-1.19.09-1.77.09-1.19-.12-1.76-.12-1.2-.28-1.77-.26-1.21-.01-1.81.03-1.12.81-1.71.88-1.3-.56-1.88-.45-1,1.01-1.58,1.16-1.23-.01-1.79.17-1.21.19-1.76.42-1.12.48-1.64.76-1.02.65-1.51.98c-.49.33-.94.73-1.36,1.11s-.56,1.06-.92,1.51-.71.88-1,1.38-.92.86-1.11,1.4.07,1.22-.03,1.79-.33,1.11-.32,1.69.26,1.11.38,1.68c.12.6.36,1.09.59,1.65s-.04,1.37.28,1.88.78.96,1.18,1.42.76.98,1.21,1.39,1.01.72,1.5,1.07,1.26.26,1.78.56c.47.26.91.65,1.51.88.52.2,1.12.22,1.72.41.54.17,1.06.46,1.66.62.55.15,1.01.77,1.61.9s1.16.19,1.76.32,1.25-.28,1.84-.16,1.09.6,1.68.71,1.17.2,1.76.3,1.16.25,1.75.34,1.18.22,1.75.31,1.16.32,1.74.42,1.24-.13,1.81-.03c.61.1,1.21.12,1.77.22.61.11,1.11.67,1.65.79.63.13,1.23.09,1.75.23.6.15,1.12.49,1.69.64.59.16,1.35-.32,1.91-.16.59.17,1.09.6,1.65.77.59.18,1.27,0,1.83.18.58.19,1.09.58,1.64.77.58.2,1.21.22,1.76.42s1.08.58,1.62.79,1.2.24,1.75.46,1.07.56,1.62.79,1.05.6,1.6.83,1.05.56,1.61.79,1.23.12,1.79.35,1.03.59,1.59.82,1.02.61,1.59.84,1.07.49,1.65.71,1.08.48,1.65.69c.55.2,1.1.41,1.68.62s1.16.27,1.74.46c.55.19,1.12.38,1.7.57.54.18,1.16.12,1.72.27s1.13.2,1.7.33,1.12.21,1.7.32,1.06.6,1.64.69,1.1.5,1.68.58,1.16.12,1.74.19,1.16.12,1.74.17,1.2-.51,1.78-.48,1.15.12,1.73.14,1.15.44,1.73.45,1.17-.3,1.74-.31c.64-.01,1.28.23,1.89.18s1.21-.47,1.82-.57,1.27-.03,1.87-.17,1.35.1,1.95-.09,1.05-.83,1.63-1.07,1.14-.52,1.7-.8,1.2-.43,1.74-.76,1.21-.49,1.72-.86c.5-.37.97-.81,1.4-1.21.46-.42.34-1.37.72-1.81.4-.48,1.36-.52,1.67-1.02.33-.53.66-1.11.88-1.65s-.31-1.36-.2-1.94.56-1.13.55-1.73-.46-1.12-.58-1.72-.12-1.15-.34-1.73c-.21-.55-.49-1.04-.79-1.59-.28-.51-.43-1.11-.79-1.62-.34-.47-.74-.92-1.15-1.38-.39-.44-.77-.9-1.21-1.33s-.81-.87-1.27-1.28-.98-.68-1.46-1.06-.79-.93-1.28-1.29-.9-.81-1.41-1.15-1.07-.55-1.59-.87-.97-.72-1.5-1.03-1.35-.02-1.89-.31-.86-.94-1.4-1.21-.96-.78-1.51-1.03-1.07-.57-1.62-.81-1.12-.45-1.68-.68-1.23-.17-1.8-.38-1.06-.6-1.63-.81-1.28,0-1.85-.19-1.03-.73-1.6-.91" fill="none" stroke="#888989" stroke-linecap="round" stroke-miterlimit="10" stroke-width="4.5"/>
    <path d="M282.32,241.1c.41.69.7,1.47.89,2.22.14.58-.3,1.18-.29,1.77s.06,1.11-.05,1.7-.16,1.13-.37,1.69-.1,1.23-.37,1.76c-.25.49-.52,1.2-1.01,1.78-.4.48-1.15.71-1.72,1.11-.52.37-1.08.72-1.74.93-.6.19-1.24.03-1.96.02-.66,0-1.32.53-1.97.51s-1.29-.54-1.93-.58-1.3,0-1.95-.08-1.35.22-2,.11-1.34-.1-1.97-.26c-.61-.15-1.07-.83-1.66-.98s-1.21-.29-1.79-.44-1.28,0-1.86-.16c-.61-.16-1.25-.15-1.83-.31-.61-.17-1-1.08-1.57-1.24-.61-.17-1.42.43-1.99.27-.62-.17-1.1-.74-1.66-.9-.62-.17-1.18-.46-1.74-.62-.63-.18-1.34.08-1.89-.07-.55-.15-.93-.95-1.48-1.09s-1.2.11-1.75-.01c-.5-.11-1.07-.4-1.74-.58-.55-.15-1.31.19-1.92,0-.57-.19-1.05-.73-1.62-.96s-1.17-.44-1.7-.72c-.57-.3-.93-.87-1.38-1.22-.52-.41-1.11-.67-1.41-1.15-.33-.54-.06-1.1,0-1.73.06-.57-.29-1.23-.04-1.76s.73-.89,1.11-1.35c.35-.43.57-1.05,1.02-1.44.42-.37.82-.86,1.31-1.2s1.3-.09,1.81-.38c.63-.35,1.32-.55,1.98-.85s1.12-1.1,1.79-1.35c.6-.22,1.19-.49,1.78-.66s1.32.09,1.92-.04,1.15-.77,1.76-.86,1.32.64,1.94.6,1.21-.56,1.84-.57,1.25-.05,1.88-.03,1.24.1,1.87.14,1.24.12,1.87.17,1.22.28,1.85.35c.54.06,1.18-.17,1.81-.07.56.09,1.1.48,1.71.59.57.11,1.09.52,1.68.66s1.27-.22,1.85-.07,1.17.29,1.73.45,1.12.49,1.67.66c.59.19,1.16.38,1.69.58.6.23,1.2.37,1.68.61.59.29,1.11.72,1.65,1.06s1.36.41,1.85.82.86,1.07,1.28,1.55.81,1.08,1.13,1.63Z" fill="none" stroke="#888989" stroke-linecap="round" stroke-miterlimit="10" stroke-width="4.5"/>
  </g>
</svg>