<svg xmlns="http://www.w3.org/2000/svg" viewBox="0 0 512 512">
  <!-- 자리를 지키는 임시 무늬입니다. 그린 파일로 덮어쓰면 됩니다. -->
  <defs><clipPath id="body-02"><path d="M211.79,355.14c-5.95,2.4-13.22,2.62-18.88-.57-5.19-2.92-7.19-8.36-7.5-13.24-.33-5.28.76-9.37,4.78-15.46,4.65-7.04,10.77-12.43,17.11-17.15l.1-.78c3.43.42,7.13.8,11.16,1.12v.08c-1.74,2.82-16.36,27.69-6.33,42.65.39.58.88,1.12,1.47,1.62h0c-.15.68-.3,1.35-.43,2.03l-1.48-.3Z"/><path d="M298.72,355.45c-.13-.69-.28-1.38-.43-2.06.57-.5,1.05-1.03,1.43-1.6,10.06-14.99-4.37-39.93-6.01-42.66,3.93-.3,7.55-.65,10.91-1.05l.08.64c6.34,4.72,12.46,10.11,17.11,17.15,4.02,6.09,5.11,10.18,4.78,15.46-.31,4.88-2.31,10.32-7.49,13.24-5.67,3.19-12.94,2.97-18.88.57l-1.49.31h0Z"/><path d="M298.29,353.39c.15.68.3,1.37.43,2.06h0c1.28,6.37,1.82,13.13-1.58,18.54-2.53,4.03-6.94,6.63-11.54,7.96-4.61,1.34-9.46,1.54-14.25,1.74-4.34.18-9.23-.55-12.02-3.85-2.55-3-2.25-6.77-1.7-10.66.51-3.7.63-4.57,1.14-8.21h0c17.14-.36,33.46-2.22,39.51-7.58Z"/><path d="M254.36,369.16c.55,3.89.85,7.66-1.7,10.67-2.79,3.29-7.68,4.02-12.02,3.84-4.79-.19-9.64-.4-14.25-1.73-4.6-1.34-9.01-3.94-11.54-7.97-3.4-5.41-2.86-12.16-1.58-18.53.13-.68.28-1.35.43-2.02,6.14,5.33,22.76,7.2,39.52,7.54.51,3.63.63,4.51,1.14,8.2Z"/><path d="M253.22,360.96c-16.76-.34-33.38-2.21-39.52-7.54h0c-.59-.51-1.08-1.05-1.47-1.63-10.03-14.96,4.59-39.83,6.32-42.65v-.08c10.24.82,22.57,1.3,37.84,1.31h.43c14.8,0,26.84-.46,36.89-1.24,1.64,2.73,16.07,27.67,6.01,42.66-.38.57-.86,1.1-1.43,1.6-6.05,5.36-22.37,7.22-39.51,7.57-.93.02-1.87.03-2.8.04-.92-.01-1.84-.02-2.76-.04Z"/><path d="M133.64,246.98l1.62.11c.72-10.32,4.02-21.6,11.31-33.33l-1.09-.17c-5.6-1.49-12.5.22-16.74,4.18s-6.36,10.38-5.25,16.08c1.11,5.69,4.74,11.05,10.15,13.13ZM377.95,247.01l.4-.03c5.41-2.08,9.04-7.44,10.15-13.13,1.11-5.7-1.01-12.12-5.25-16.08s-11.12-5.67-16.72-4.18c7.35,11.76,10.67,23.08,11.42,33.42ZM256.68,156.58s43.18-.46,75.9,22.17c4.47-7.9,12.18-13.96,20.97-16.3,10.17-2.7,21.55-.35,29.82,6.15,13.32-5.22,29.62-1.68,39.56,8.6,8.22,8.51,13.36,23.77,8.55,40.47,0,0,10.15,13.07,6.94,28.52-2.14,10.32-7.83,20.29-16.92,25.62-12.21,7.16-24.96,4.46-24.96,4.46,0,0-2.77,2.72-4.36,3.83-3.05,2.14-6.56,3.63-10.22,4.3-4.86.9-9.96.35-14.54-1.49l-.39-.31c-6.18,7.39-14.99,13.58-26.53,17.47-9.36,3.15-19.58,6.09-35.88,8.01-3.36.4-6.98.75-10.91,1.05-10.05.78-22.09,1.23-36.89,1.24h-.43c-15.27,0-27.6-.49-37.83-1.31-4.03-.32-7.73-.7-11.16-1.12-15.61-1.93-25.56-4.79-34.69-7.87-11.54-3.89-20.35-10.08-26.53-17.47l-1.6.31c-4.58,1.84-9.68,2.39-14.54,1.49-3.66-.67-7.17-2.16-10.22-4.3-1.59-1.11-4.36-3.83-4.36-3.83,0,0-12.75,2.7-24.96-4.46-9.09-5.33-14.78-15.3-16.92-25.62-3.21-15.45,6.94-28.52,6.94-28.52-4.81-16.7.33-31.96,8.55-40.47,9.95-10.28,26.24-13.82,39.56-8.6,8.27-6.5,19.65-8.85,29.82-6.15,9.01,2.39,16.89,8.71,21.31,16.91,32.82-23.25,76.77-22.78,76.77-22.78h.15Z"/></clipPath></defs>
  <g clip-path="url(#body-02)" fill="#FF00FF" stroke="#888989" stroke-width="5" stroke-linejoin="round">
    <ellipse cx="256" cy="378" rx="116" ry="92"/>
  </g>
</svg>
