<?xml version="1.0" encoding="UTF-8"?>
<svg id="Layer_1" data-name="Layer 1" xmlns="http://www.w3.org/2000/svg" viewBox="0 0 500 500">
  <g>
    <polygon points="44.34 280.43 44.31 286.6 45.97 288.31 44.31 289.41 44.31 294.03 45.49 295.38 44.31 296.68 45.32 298.62 44.31 299.19 44.34 301.96 184.14 377.18 184.14 355.37 44.34 280.43" fill="#fff" stroke="#867561" stroke-linecap="round" stroke-linejoin="round" stroke-width="4"/>
    <g>
      <polygon points="184.81 355.38 44.34 280.43 224.06 186.54 363.78 267.21 184.81 355.38" fill="#fffbe9" stroke="#867561" stroke-linecap="round" stroke-linejoin="round" stroke-width="4"/>
      <polygon points="363.78 289.01 184.14 377.19 184.14 355.38 363.78 267.21 363.78 289.01" fill="#fffbe9" stroke="#867561" stroke-linecap="round" stroke-linejoin="round" stroke-width="4"/>
    </g>
    <line x1="45.97" y1="288.31" x2="92.34" y2="313.44" fill="#fff6cc" stroke="#867561" stroke-linecap="round" stroke-linejoin="round" stroke-width="4"/>
    <line x1="45.49" y1="295.38" x2="115.04" y2="331.97" fill="#fff6cc" stroke="#867561" stroke-linecap="round" stroke-linejoin="round" stroke-width="4"/>
    <line x1="45.32" y1="298.62" x2="91.38" y2="323.05" fill="#fff6cc" stroke="#867561" stroke-linecap="round" stroke-linejoin="round" stroke-width="4"/>
  </g>
  <g>
    <polygon points="36.67 241.64 36.65 247.81 38.3 249.52 36.65 250.62 36.65 255.24 37.82 256.59 36.65 257.89 37.65 259.82 36.65 260.4 36.65 264.73 37.65 265.86 36.66 266.98 36.66 269.31 176.46 344.54 176.47 316.58 36.67 241.64" fill="#fff" stroke="#867561" stroke-linecap="round" stroke-linejoin="round" stroke-width="4"/>
    <g>
      <polygon points="177.14 316.59 36.67 241.64 216.4 147.75 356.11 228.42 177.14 316.59" fill="#f7eeff" stroke="#867561" stroke-linecap="round" stroke-linejoin="round" stroke-width="4"/>
      <polygon points="356.1 256.36 176.46 344.54 176.47 316.59 356.11 228.42 356.1 256.36" fill="#f7eeff" stroke="#867561" stroke-linecap="round" stroke-linejoin="round" stroke-width="4"/>
    </g>
    <line x1="38.3" y1="249.52" x2="84.67" y2="274.65" fill="#fff6cc" stroke="#867561" stroke-linecap="round" stroke-linejoin="round" stroke-width="4"/>
    <line x1="37.82" y1="256.59" x2="107.37" y2="293.18" fill="#fff6cc" stroke="#867561" stroke-linecap="round" stroke-linejoin="round" stroke-width="4"/>
    <line x1="37.65" y1="259.82" x2="79.82" y2="282.2" fill="#fff6cc" stroke="#867561" stroke-linecap="round" stroke-linejoin="round" stroke-width="4"/>
    <line x1="37.65" y1="265.86" x2="90.31" y2="293.85" fill="#fff6cc" stroke="#867561" stroke-linecap="round" stroke-linejoin="round" stroke-width="4"/>
  </g>
  <g>
    <polygon points="68.37 228.6 68.35 234.77 70 236.48 68.35 237.58 68.35 242.2 69.52 243.55 68.35 244.85 69.35 246.79 68.35 247.37 68.37 250.13 208.17 325.35 208.17 303.55 68.37 228.6" fill="#fff" stroke="#867561" stroke-linecap="round" stroke-linejoin="round" stroke-width="4"/>
    <g>
      <polygon points="208.84 303.55 68.37 228.6 248.1 134.71 387.81 215.38 208.84 303.55" fill="#f3ffff" stroke="#867561" stroke-linecap="round" stroke-linejoin="round" stroke-width="4"/>
      <polygon points="387.81 237.19 208.17 325.36 208.17 303.55 387.81 215.38 387.81 237.19" fill="#f3ffff" stroke="#867561" stroke-linecap="round" stroke-linejoin="round" stroke-width="4"/>
    </g>
    <line x1="70" y1="236.48" x2="116.37" y2="261.61" fill="#fff6cc" stroke="#867561" stroke-linecap="round" stroke-linejoin="round" stroke-width="4"/>
    <line x1="69.52" y1="243.55" x2="139.07" y2="280.14" fill="#fff6cc" stroke="#867561" stroke-linecap="round" stroke-linejoin="round" stroke-width="4"/>
    <line x1="69.35" y1="246.79" x2="115.41" y2="271.22" fill="#fff6cc" stroke="#867561" stroke-linecap="round" stroke-linejoin="round" stroke-width="4"/>
  </g>
  <g>
    <path d="M251.22,403.17s-4.65-2.71-3.64-7.12c1.94-8.52,13.1-11.62,13.1-11.62l175.93-58.57c11.59-3.86,17.02-17.58,11.21-28.45l-106.87-199.89c-4.37-8.18-13.56-12.05-22.09-9.31l-173.69,55.93c-5.59,1.8-10.5,5.34-13.93,10.24-6.23,8.89-11.17,25.17,1.95,51.61l95.81,188.32c5.37,10.55,17.48,15.64,28.52,11.99l178.1-58.73c10.51-3.47,15.43-15.86,10.17-25.67l-.78-1.58" fill="#f9cadc" stroke="#867561" stroke-linecap="round" stroke-miterlimit="10" stroke-width="4"/>
    <path d="M140.71,145.98l178.15-57.75c8.53-2.75,17.72,1.13,22.09,9.31l106.87,199.89c5.81,10.87.38,24.59-11.21,28.45l-175.93,58.57" fill="#fddde8" stroke="#867561" stroke-miterlimit="10"/>
    <path d="M248.2,400.09l179.54-59.28c7.35-2.43,11.97-9.23,12.27-16.46" fill="#fff" stroke="#867561" stroke-miterlimit="10" stroke-width="4"/>
    <path d="M370.24,129.13l-10.53,3.41-13.91-25.97,12.75-4.15c2.37-.77,4.91.3,6.12,2.56l8.62,16.18c1.63,3.06.14,6.93-3.06,7.97Z" fill="#e1f6ff" stroke="#867561" stroke-miterlimit="10" stroke-width="4"/>
    <path d="M388.04,162.6l-10.49,3.38-13.79-25.75,12.7-4.11c2.36-.76,4.89.3,6.09,2.54l8.55,16.04c1.62,3.03.13,6.87-3.06,7.9Z" fill="#fff7c7" stroke="#867561" stroke-miterlimit="10" stroke-width="4"/>
    <path d="M140.88,145.92l177.97-57.7c8.53-2.75,17.72,1.13,22.09,9.31l106.87,199.89c5.81,10.87.38,24.59-11.21,28.45l-175.93,58.57" fill="none" stroke="#867561" stroke-linecap="round" stroke-miterlimit="10" stroke-width="4"/>
    <path d="M407.59,222.18l5.09,9.53s4.04-1.98,6.04-9.21c2.3-8.32-2.04-15.8-2.04-15.8l-8.64-16.71c-3.37-6.51-10.81-9.47-17.56-6.97l-29.45,10.92c-11.62,4.31-16.78,18.36-10.9,29.52l.59,1.12c4.73,8.97,15.04,13.02,24.35,9.59l33.69-12.42c1.99-.56,3.51-.21,4.75.78" fill="#fddde8" stroke="#867561" stroke-linecap="round" stroke-miterlimit="10" stroke-width="4"/>
    <path d="M379.38,214.44c.61,5.46-3.5,9.89-9.19,9.91-5.69.02-10.8-4.38-11.43-9.84-.63-5.46,3.49-9.91,9.19-9.93,5.7-.02,10.82,4.4,11.43,9.86Z" fill="#fff7c7" stroke="#867561" stroke-miterlimit="10" stroke-width="4"/>
  </g>
</svg>