<?xml version="1.0" encoding="UTF-8"?>
<svg id="Layer_1" data-name="Layer 1" xmlns="http://www.w3.org/2000/svg" viewBox="0 0 500 500">
  <g>
    <g>
      <path d="M364.76,210.3v22.91c0,39.1-38.75,70.79-86.55,70.79s-86.55-31.7-86.55-70.79v-22.91c0,39.1,38.75,70.8,86.55,70.8s86.55-31.7,86.55-70.8Z" fill="#c5dff8"/>
      <path d="M351,210.3c0,5.87-1.04,11.54-2.97,16.9l-.14-.05c0-31.41-31.13-56.87-69.53-56.87s-69.53,25.46-69.53,56.87c0,.4,0,.8.01,1.19h-.01c-2.21-5.68-3.41-11.75-3.41-18.04,0-32.89,32.59-59.54,72.79-59.54s72.79,26.65,72.79,59.54Z" fill="#b3cce2"/>
      <path d="M278.21,139.5c47.8,0,86.55,31.7,86.55,70.8s-38.75,70.8-86.55,70.8-86.55-31.7-86.55-70.8,38.75-70.8,86.55-70.8ZM348.02,227.2c1.94-5.36,2.97-11.03,2.97-16.9,0-32.89-32.59-59.54-72.79-59.54s-72.79,26.65-72.79,59.54c0,6.29,1.19,12.35,3.41,18.04,9.34,24.07,36.88,41.5,69.38,41.5s60.91-17.98,69.81-42.64Z" fill="#d7e9f9"/>
    </g>
    <g>
      <path d="M208.83,228.34c-2.21-5.69-3.41-11.75-3.41-18.04,0-32.89,32.59-59.54,72.79-59.54s72.79,26.65,72.79,59.54c0,5.87-1.04,11.54-2.97,16.9-8.91,24.66-36.79,42.64-69.81,42.64s-60.04-17.43-69.38-41.5Z" fill="none" stroke="#867561" stroke-miterlimit="10" stroke-width="4"/>
      <path d="M208.84,228.34c0-.39-.01-.79-.01-1.19,0-31.41,31.13-56.87,69.53-56.87s69.53,25.46,69.53,56.87" fill="none" stroke="#867561" stroke-miterlimit="10" stroke-width="4"/>
      <ellipse cx="278.21" cy="210.3" rx="86.55" ry="70.8" fill="none" stroke="#867561" stroke-miterlimit="10" stroke-width="4"/>
      <path d="M364.76,210.3v22.91c0,39.1-38.75,70.79-86.55,70.79s-86.55-31.7-86.55-70.79v-22.91" fill="none" stroke="#867561" stroke-miterlimit="10" stroke-width="4"/>
    </g>
  </g>
  <g>
    <g>
      <path d="M237.37,280.33c5.86,4.11,8.45,10.54,5.77,14.36l-14.64,19.22c-1.5-3.8-4.58-7.65-8.86-10.65-3.62-2.53-7.51-4.04-11.09-4.52l-.6-.45,13.96-18.46c2.68-3.83,9.6-3.61,15.46.5Z" fill="#c2e0fb"/>
      <path d="M228.5,313.91c1.49,3.75,1.44,7.45-.49,10.2l-37.83,54.02c3.89-5.55.14-14.89-8.36-20.84-8.51-5.96-18.56-6.29-22.45-.73l37.82-54.02c2.24-3.2,6.52-4.44,11.36-3.8,3.58.48,7.47,1.99,11.09,4.52,4.28,3,7.36,6.85,8.86,10.65Z" fill="#c3afa1"/>
      <path d="M181.81,357.29c8.5,5.95,12.25,15.29,8.36,20.84-3.89,5.56-13.94,5.23-22.45-.73-8.51-5.95-12.25-15.29-8.36-20.84,3.89-5.56,13.94-5.23,22.45.73Z" fill="#bba798"/>
    </g>
    <g>
      <path d="M190.17,378.13c-3.89,5.56-13.94,5.23-22.45-.73-8.51-5.95-12.25-15.29-8.36-20.84,3.89-5.56,13.94-5.23,22.45.73,8.5,5.95,12.25,15.29,8.36,20.84Z" fill="none" stroke="#867561" stroke-miterlimit="10" stroke-width="4"/>
      <path d="M207.73,298.57l.22-.29,13.96-18.46c2.68-3.83,9.6-3.61,15.46.5,5.86,4.11,8.45,10.54,5.77,14.36l-14.64,19.22" fill="none" stroke="#867561" stroke-miterlimit="10" stroke-width="4"/>
      <path d="M159.36,356.56l37.82-54.02c2.24-3.2,6.52-4.44,11.36-3.8,3.58.48,7.47,1.99,11.09,4.52,4.28,3,7.36,6.85,8.86,10.65,1.49,3.75,1.44,7.45-.49,10.2l-37.83,54.02" fill="none" stroke="#867561" stroke-miterlimit="10" stroke-width="4"/>
    </g>
  </g>
</svg>