<?xml version="1.0" encoding="UTF-8"?>
<svg id="Layer_1" data-name="Layer 1" xmlns="http://www.w3.org/2000/svg" viewBox="0 0 125.57 125.57">
  <path d="M73.95,41.85l.49.75c.8,1.22,2.03,2.09,3.45,2.43l.87.21c4.75,1.15,7.73,5.86,6.73,10.64l-.18.87c-.3,1.43-.04,2.91.72,4.16l.46.76c2.55,4.17,1.32,9.61-2.77,12.28l-.75.49c-1.22.8-2.09,2.03-2.43,3.45l-.21.87c-1.15,4.75-5.86,7.73-10.64,6.73l-.87-.18c-1.43-.3-2.91-.04-4.16.72l-.76.46c-4.17,2.55-9.61,1.32-12.28-2.77l-.49-.75c-.8-1.22-2.03-2.09-3.45-2.43l-.87-.21c-4.75-1.15-7.73-5.86-6.73-10.64l.18-.87c.3-1.43.04-2.91-.72-4.16l-.46-.76c-2.55-4.17-1.32-9.61,2.77-12.28l.75-.49c1.22-.8,2.09-2.03,2.43-3.45l.21-.87c1.15-4.75,5.86-7.73,10.64-6.73l.87.18c1.43.3,2.91.04,4.16-.72l.76-.46c4.17-2.55,9.61-1.32,12.28,2.77Z" fill="#cce4ea" stroke="#97c7d3" stroke-linecap="round" stroke-miterlimit="10" stroke-width="3"/>
  <path d="M58.76,55.55l-6.45-.37c-2.39-.14-4.03,1.78-3.52,4.12l1.38,6.31" fill="#cce4ea" stroke="#97c7d3" stroke-linecap="round" stroke-miterlimit="10" stroke-width="3"/>
  <path d="M57.54,72.91l4.77,4.36c1.76,1.62,4.25,1.16,5.33-.97l2.92-5.76" fill="#cce4ea" stroke="#97c7d3" stroke-linecap="round" stroke-miterlimit="10" stroke-width="3"/>
  <path d="M74.57,60.37l.32-6.45c.12-2.39-1.81-4.01-4.15-3.49l-6.3,1.43" fill="#cce4ea" stroke="#97c7d3" stroke-linecap="round" stroke-miterlimit="10" stroke-width="3"/>
</svg>