<?xml version="1.0" encoding="UTF-8"?>
<svg id="_입" data-name="입" xmlns="http://www.w3.org/2000/svg" viewBox="0 0 512 512">
  <path d="M269.99,281.25c-.24.5-.49,1.05-.99,1.46-.42.35-.86.84-1.43,1.12-.5.24-1.05.58-1.65.78-.54.18-1.19.13-1.8.26-.56.13-1.23-.27-1.84-.18s-1.14.25-1.74.31-1.17.03-1.77.06-1.17.52-1.76.53-1.19-.2-1.78-.22-1.19-.06-1.78-.11-1.17-.27-1.75-.34-1.26.29-1.83.19-1.12-.58-1.68-.71c-.6-.14-1.29.07-1.83-.11-.6-.19-1.04-.75-1.55-.98-.59-.26-1.27-.29-1.72-.6-.54-.38-.84-.97-1.14-1.42" fill="none" stroke="#888989" stroke-linecap="round" stroke-linejoin="round" stroke-width="4.5"/>
</svg>