<?xml version="1.0" encoding="UTF-8"?>
<svg id="Layer_1" data-name="Layer 1" xmlns="http://www.w3.org/2000/svg" viewBox="0 0 512 512">
  <g>
    <path d="M268.31,277.9c0,.69.41,1.48,0,1.85-.37.34-1.07.66-1.74.81-.5.11-1.16-.14-1.81-.1-.54.03-1.13.05-1.75.05-.55,0-1.14.08-1.75.06-.56-.01-1.15.05-1.75.04-.57-.02-1.15-.14-1.75-.15-.57-.01-1.15-.47-1.75-.47s-1.18.72-1.75.73c-.6.01-1.2-.69-1.77-.67-.61.02-1.17.75-1.73.76-.61.02-1.21-.31-1.76-.31-.63,0-1.19-.48-1.72-.52-.65-.04-1.34.7-1.84.59-.67-.15-1.18-.7-1.56-1.03-.41-.37-.62-.96-.62-1.65,0-.65.1-1.34.46-1.83.33-.44.95-.73,1.55-1.06.48-.26.99-.71,1.62-.91.54-.17,1.18-.23,1.82-.35.57-.11,1.21.1,1.85.03.58-.07,1.16-.46,1.79-.5.59-.04,1.21.19,1.84.17.59-.02,1.2.07,1.83.07s1.23-.05,1.83-.03c.63.02,1.23.19,1.82.23.63.04,1.23.05,1.81.11.64.07,1.26-.03,1.83.08.64.12,1.24.24,1.78.4.64.19,1.34.19,1.82.46.59.33,1.18.79,1.51,1.23.36.49-.09,1.25-.09,1.89Z" fill="#fff"/>
    <path d="M268.31,277.9c0,.69.41,1.48,0,1.85-.37.34-1.07.66-1.74.81-.5.11-1.16-.14-1.81-.1-.54.03-1.13.05-1.75.05-.55,0-1.14.08-1.75.06-.56-.01-1.15.05-1.75.04-.57-.02-1.15-.14-1.75-.15-.57-.01-1.15-.47-1.75-.47s-1.18.72-1.75.73c-.6.01-1.2-.69-1.77-.67-.61.02-1.17.75-1.73.76-.61.02-1.21-.31-1.76-.31-.63,0-1.19-.48-1.72-.52-.65-.04-1.34.7-1.84.59-.67-.15-1.18-.7-1.56-1.03-.41-.37-.62-.96-.62-1.65,0-.65.1-1.34.46-1.83.33-.44.95-.73,1.55-1.06.48-.26.99-.71,1.62-.91.54-.17,1.18-.23,1.82-.35.57-.11,1.21.1,1.85.03.58-.07,1.16-.46,1.79-.5.59-.04,1.21.19,1.84.17.59-.02,1.2.07,1.83.07s1.23-.05,1.83-.03c.63.02,1.23.19,1.82.23.63.04,1.23.05,1.81.11.64.07,1.26-.03,1.83.08.64.12,1.24.24,1.78.4.64.19,1.34.19,1.82.46.59.33,1.18.79,1.51,1.23.36.49-.09,1.25-.09,1.89Z" fill="none" stroke="#888989" stroke-linecap="round" stroke-linejoin="round" stroke-width="4.5"/>
  </g>
  <g>
    <path d="M256,287.16c.63,0,1.23-.01,1.82-.03.63-.02,1.23.09,1.82.05.63-.04,1.23-.06,1.81-.13.64-.07,1.18-.39,1.75-.5.64-.12,1.42.5,1.96.34.64-.19,1.25-.51,1.73-.77.59-.33.59-1.23.92-1.67.36-.49,1.06-.82,1.06-1.46,0-.69-.21-1.42-.62-1.79-.37-.34-1.07-.49-1.74-.64-.5-.11-1.14.31-1.78.27-.54-.03-1.1-.07-1.73-.07-.55,0-1.14-.49-1.75-.47-.56.01-1.14.27-1.74.28-.57.02-1.15.02-1.75.03-.57.01-1.16.25-1.75.25" fill="#fff"/>
    <path d="M256,287.16c.63,0,1.23-.01,1.82-.03.63-.02,1.23.09,1.82.05.63-.04,1.23-.06,1.81-.13.64-.07,1.18-.39,1.75-.5.64-.12,1.42.5,1.96.34.64-.19,1.25-.51,1.73-.77.59-.33.59-1.23.92-1.67.36-.49,1.06-.82,1.06-1.46,0-.69-.21-1.42-.62-1.79-.37-.34-1.07-.49-1.74-.64-.5-.11-1.14.31-1.78.27-.54-.03-1.1-.07-1.73-.07-.55,0-1.14-.49-1.75-.47-.56.01-1.14.27-1.74.28-.57.02-1.15.02-1.75.03-.57.01-1.16.25-1.75.25" fill="none" stroke="#888989" stroke-linecap="round" stroke-linejoin="round" stroke-width="4.5"/>
  </g>
  <g>
    <path d="M256,280.81c-.6,0-1.18-.32-1.75-.33-.6-.01-1.2.46-1.77.45-.61-.02-1.17-.64-1.74-.66-.61-.02-1.2.03-1.75.03-.63,0-1.2.41-1.73.44-.65.04-1.19.11-1.69.22-.67.15-1.4-.04-1.77.3-.41.37-.48,1.04-.48,1.73,0,.65.12,1.27.49,1.76.33.44.79.93,1.39,1.25.48.26,1.15.29,1.78.48.54.17,1.19-.04,1.83.08.57.11,1.13.3,1.76.38.58.07,1.18,0,1.81.04.59.04,1.16.77,1.79.78.59.02,1.21-.38,1.84-.38" fill="#fff"/>
    <path d="M256,280.81c-.6,0-1.18-.32-1.75-.33-.6-.01-1.2.46-1.77.45-.61-.02-1.17-.64-1.74-.66-.61-.02-1.2.03-1.75.03-.63,0-1.2.41-1.73.44-.65.04-1.19.11-1.69.22-.67.15-1.4-.04-1.77.3-.41.37-.48,1.04-.48,1.73,0,.65.12,1.27.49,1.76.33.44.79.93,1.39,1.25.48.26,1.15.29,1.78.48.54.17,1.19-.04,1.83.08.57.11,1.13.3,1.76.38.58.07,1.18,0,1.81.04.59.04,1.16.77,1.79.78.59.02,1.21-.38,1.84-.38" fill="none" stroke="#888989" stroke-linecap="round" stroke-linejoin="round" stroke-width="4.5"/>
  </g>
</svg>